<svg width="299" height="31" viewBox="0 0 299 31" fill="none" xmlns="http://www.w3.org/2000/svg">
<path d="M6 31C4.93333 31 3.96 30.7467 3.08 30.24C2.22667 29.7067 1.53333 29.0133 1 28.16C0.493333 27.28 0.24 26.3067 0.24 25.24V7.96C0.24 6.89333 0.493333 5.93333 1 5.08C1.53333 4.2 2.22667 3.50666 3.08 3C3.96 2.46667 4.93333 2.2 6 2.2H23.24C24.3067 2.2 25.2667 2.46667 26.12 3C27 3.50666 27.7067 4.2 28.24 5.08C28.7733 5.93333 29.04 6.89333 29.04 7.96V10.44H23.2V8.24C23.2 8.16 23.1733 8.10667 23.12 8.08C23.0933 8.02667 23.04 8 22.96 8H6.24C6.16 8 6.09333 8.02667 6.04 8.08C6.01333 8.10667 6 8.16 6 8.24V24.96C6 25.04 6.01333 25.1067 6.04 25.16C6.09333 25.1867 6.16 25.2 6.24 25.2H22.96C23.04 25.2 23.0933 25.1867 23.12 25.16C23.1733 25.1067 23.2 25.04 23.2 24.96V20.24H16.84V14.44H29.04V25.24C29.04 26.3067 28.7733 27.28 28.24 28.16C27.7067 29.0133 27 29.7067 26.12 30.24C25.2667 30.7467 24.3067 31 23.24 31H6ZM42.9231 31C41.9098 31 40.9765 30.7467 40.1231 30.24C39.2698 29.7067 38.5765 29.0133 38.0431 28.16C37.5365 27.3067 37.2831 26.3733 37.2831 25.36V0.159999H43.0031V25.08C43.0031 25.1333 43.0298 25.1867 43.0831 25.24C43.1365 25.2933 43.1898 25.32 43.2431 25.32H47.8031V31H42.9231ZM60.4378 31C59.4245 31 58.4911 30.7467 57.6378 30.24C56.7845 29.7067 56.0911 29.0133 55.5578 28.16C55.0511 27.3067 54.7978 26.3733 54.7978 25.36V13.44C54.7978 12.4267 55.0511 11.4933 55.5578 10.64C56.0911 9.78667 56.7845 9.10667 57.6378 8.6C58.4911 8.06667 59.4245 7.8 60.4378 7.8H72.6778C73.7178 7.8 74.6645 8.06667 75.5178 8.6C76.3711 9.10667 77.0511 9.78667 77.5578 10.64C78.0645 11.4933 78.3178 12.4267 78.3178 13.44V25.36C78.3178 26.3733 78.0645 27.3067 77.5578 28.16C77.0511 29.0133 76.3711 29.7067 75.5178 30.24C74.6645 30.7467 73.7178 31 72.6778 31H60.4378ZM60.7178 25.32H72.3978C72.4511 25.32 72.5045 25.2933 72.5578 25.24C72.6111 25.1867 72.6378 25.1333 72.6378 25.08V13.72C72.6378 13.6667 72.6111 13.6133 72.5578 13.56C72.5045 13.5067 72.4511 13.48 72.3978 13.48H60.7178C60.6645 13.48 60.6111 13.5067 60.5578 13.56C60.5045 13.6133 60.4778 13.6667 60.4778 13.72V25.08C60.4778 25.1333 60.5045 25.1867 60.5578 25.24C60.6111 25.2933 60.6645 25.32 60.7178 25.32ZM86.2616 31V0.199998H91.9416V7.8H104.142C105.182 7.8 106.128 8.06667 106.982 8.6C107.835 9.10667 108.515 9.78667 109.022 10.64C109.528 11.4933 109.782 12.4267 109.782 13.44V25.36C109.782 26.3733 109.528 27.3067 109.022 28.16C108.515 29.0133 107.835 29.7067 106.982 30.24C106.128 30.7467 105.182 31 104.142 31H86.2616ZM92.1816 25.32H103.862C103.942 25.32 103.995 25.2933 104.022 25.24C104.075 25.1867 104.102 25.1333 104.102 25.08V13.72C104.102 13.6667 104.075 13.6133 104.022 13.56C103.995 13.5067 103.942 13.48 103.862 13.48H92.1816C92.1282 13.48 92.0749 13.5067 92.0216 13.56C91.9682 13.6133 91.9416 13.6667 91.9416 13.72V25.08C91.9416 25.1333 91.9682 25.1867 92.0216 25.24C92.0749 25.2933 92.1282 25.32 92.1816 25.32ZM122.461 31C121.448 31 120.515 30.7467 119.661 30.24C118.808 29.7067 118.115 29.0133 117.581 28.16C117.075 27.3067 116.821 26.3733 116.821 25.36V13.44C116.821 12.4267 117.075 11.4933 117.581 10.64C118.115 9.78667 118.808 9.10667 119.661 8.6C120.515 8.06667 121.448 7.8 122.461 7.8H134.701C135.741 7.8 136.688 8.06667 137.541 8.6C138.395 9.10667 139.075 9.78667 139.581 10.64C140.088 11.4933 140.341 12.4267 140.341 13.44V22.28H122.501V25.08C122.501 25.1333 122.528 25.1867 122.581 25.24C122.635 25.2933 122.688 25.32 122.741 25.32H140.341V31H122.461ZM122.501 17.2H134.661V13.72C134.661 13.6667 134.635 13.6133 134.581 13.56C134.528 13.5067 134.475 13.48 134.421 13.48H122.741C122.688 13.48 122.635 13.5067 122.581 13.56C122.528 13.6133 122.501 13.6667 122.501 13.72V17.2ZM171.094 31C170.027 31 169.054 30.7467 168.174 30.24C167.32 29.7067 166.627 29.0133 166.094 28.16C165.587 27.28 165.334 26.3067 165.334 25.24V7.96C165.334 6.89333 165.587 5.93333 166.094 5.08C166.627 4.2 167.32 3.50666 168.174 3C169.054 2.46667 170.027 2.2 171.094 2.2H188.334C189.4 2.2 190.36 2.46667 191.214 3C192.094 3.50666 192.8 4.2 193.334 5.08C193.867 5.93333 194.134 6.89333 194.134 7.96V10.44H188.294V8.24C188.294 8.16 188.267 8.10667 188.214 8.08C188.187 8.02667 188.134 8 188.054 8H171.334C171.254 8 171.187 8.02667 171.134 8.08C171.107 8.10667 171.094 8.16 171.094 8.24V24.96C171.094 25.04 171.107 25.1067 171.134 25.16C171.187 25.1867 171.254 25.2 171.334 25.2H188.054C188.134 25.2 188.187 25.1867 188.214 25.16C188.267 25.1067 188.294 25.04 188.294 24.96V20.24H181.934V14.44H194.134V25.24C194.134 26.3067 193.867 27.28 193.334 28.16C192.8 29.0133 192.094 29.7067 191.214 30.24C190.36 30.7467 189.4 31 188.334 31H171.094ZM208.017 31C207.004 31 206.057 30.7467 205.177 30.24C204.324 29.7067 203.644 29.0133 203.137 28.16C202.63 27.3067 202.377 26.3733 202.377 25.36V16.52H220.217V13.72C220.217 13.6667 220.19 13.6133 220.137 13.56C220.084 13.5067 220.03 13.48 219.977 13.48H202.377V7.8H220.257C221.297 7.8 222.244 8.06667 223.097 8.6C223.95 9.10667 224.63 9.78667 225.137 10.64C225.644 11.4933 225.897 12.4267 225.897 13.44V31H208.017ZM208.297 25.32H220.217V21.6H208.057V25.08C208.057 25.1333 208.084 25.1867 208.137 25.24C208.19 25.2933 208.244 25.32 208.297 25.32ZM233.137 31V7.8H261.457C262.523 7.8 263.483 8.06667 264.337 8.6C265.19 9.10667 265.87 9.78667 266.377 10.64C266.883 11.4933 267.137 12.4267 267.137 13.44V31H261.457V13.72C261.457 13.6667 261.43 13.6133 261.377 13.56C261.35 13.5067 261.297 13.48 261.217 13.48H253.257C253.177 13.48 253.11 13.5067 253.057 13.56C253.03 13.6133 253.017 13.6667 253.017 13.72V31H247.297V13.72C247.297 13.6667 247.27 13.6133 247.217 13.56C247.163 13.5067 247.11 13.48 247.057 13.48H239.057C239.003 13.48 238.95 13.5067 238.897 13.56C238.87 13.6133 238.857 13.6667 238.857 13.72V31H233.137ZM280.391 31C279.378 31 278.444 30.7467 277.591 30.24C276.738 29.7067 276.044 29.0133 275.511 28.16C275.004 27.3067 274.751 26.3733 274.751 25.36V13.44C274.751 12.4267 275.004 11.4933 275.511 10.64C276.044 9.78667 276.738 9.10667 277.591 8.6C278.444 8.06667 279.378 7.8 280.391 7.8H292.631C293.671 7.8 294.618 8.06667 295.471 8.6C296.324 9.10667 297.004 9.78667 297.511 10.64C298.018 11.4933 298.271 12.4267 298.271 13.44V22.28H280.431V25.08C280.431 25.1333 280.458 25.1867 280.511 25.24C280.564 25.2933 280.618 25.32 280.671 25.32H298.271V31H280.391ZM280.431 17.2H292.591V13.72C292.591 13.6667 292.564 13.6133 292.511 13.56C292.458 13.5067 292.404 13.48 292.351 13.48H280.671C280.618 13.48 280.564 13.5067 280.511 13.56C280.458 13.6133 280.431 13.6667 280.431 13.72V17.2Z" fill="black"/>
</svg>
